<?xml version="1.0" standalone="yes"?>

<svg version="1.1" viewBox="0.0 0.0 1237.0813648293963 832.9685039370079" fill="none" stroke="none" stroke-linecap="square" stroke-miterlimit="10" xmlns="http://www.w3.org/2000/svg" xmlns:xlink="http://www.w3.org/1999/xlink"><clipPath id="p.0"><path d="m0 0l1237.0814 0l0 832.9685l-1237.0814 0l0 -832.9685z" clip-rule="nonzero"></path></clipPath><g clip-path="url(#p.0)"><path fill="#000000" fill-opacity="0.0" d="m0 0l1237.0814 0l0 832.9685l-1237.0814 0z" fill-rule="evenodd"></path><path fill="#cc0000" fill-opacity="0.5538" d="m397.2047 180.69292l0 0c0 -73.46692 59.5567 -133.02362 133.02362 -133.02362l0 0c35.28009 0 69.11517 14.014946 94.06189 38.96172c24.946777 24.946762 38.96173 58.781845 38.96173 94.061905l0 0c0 73.46692 -59.5567 133.0236 -133.02362 133.0236l0 0c-73.46692 0 -133.02362 -59.556686 -133.02362 -133.0236z" fill-rule="evenodd"></path><path fill="#cc0000" fill-opacity="0.5538" d="m443.71652 225.89764l0 0c0 -6.984024 5.661682 -12.645676 12.645691 -12.645676l0 0c3.3538208 0 6.5703125 1.3323059 8.9418335 3.703827c2.371521 2.371521 3.703827 5.5879974 3.703827 8.941849l0 0c0 6.984009 -5.6616516 12.64566 -12.64566 12.64566l0 0c-6.984009 0 -12.645691 -5.6616516 -12.645691 -12.64566z" fill-rule="evenodd"></path><path fill="#cc0000" fill-opacity="0.5538" d="m433.66928 145.15224l0 0c0 -6.984009 5.661682 -12.645676 12.645691 -12.645676l0 0c3.3538208 0 6.5703125 1.3323059 8.9418335 3.703827c2.371521 2.371521 3.703827 5.5879974 3.703827 8.941849l0 0c0 6.984009 -5.6616516 12.64566 -12.64566 12.64566l0 0c-6.984009 0 -12.645691 -5.6616516 -12.645691 -12.64566z" fill-rule="evenodd"></path><path fill="#cc0000" fill-opacity="0.5538" d="m492.29135 92.698166l0 0c0 -6.9840164 5.6616516 -12.645676 12.64566 -12.645676l0 0c3.3538513 0 6.5703125 1.3323135 8.9418335 3.7038345c2.371521 2.371521 3.7038574 5.5879974 3.7038574 8.941841l0 0c0 6.984009 -5.661682 12.645668 -12.645691 12.645668l0 0c-6.984009 0 -12.64566 -5.6616592 -12.64566 -12.645668z" fill-rule="evenodd"></path><path fill="#cc0000" fill-opacity="0.5538" d="m602.2336 145.15224l0 0c0 -6.984009 5.661682 -12.645676 12.645691 -12.645676l0 0c3.3538208 0 6.5703125 1.3323059 8.9418335 3.703827c2.371521 2.371521 3.7038574 5.5879974 3.7038574 8.941849l0 0c0 6.984009 -5.661682 12.64566 -12.645691 12.64566l0 0c-6.984009 0 -12.645691 -5.6616516 -12.645691 -12.64566z" fill-rule="evenodd"></path><path fill="#cc0000" fill-opacity="0.5538" d="m517.5827 210.61679l0 0c0 -6.984009 5.661621 -12.64566 12.64563 -12.64566l0 0c3.3538818 0 6.5703125 1.3323059 8.9418335 3.703827c2.371521 2.371521 3.7038574 5.5879974 3.7038574 8.9418335l0 0c0 6.984024 -5.661682 12.645676 -12.645691 12.645676l0 0c-6.984009 0 -12.64563 -5.6616516 -12.64563 -12.645676z" fill-rule="evenodd"></path><path fill="#cc0000" fill-opacity="0.5538" d="m498.042 268.68765l0 0c0 -6.984009 5.6616516 -12.64566 12.64566 -12.64566l0 0c3.3538513 0 6.570343 1.3323059 8.941864 3.703827c2.371521 2.371521 3.7037964 5.5880127 3.7037964 8.9418335l0 0c0 6.984009 -5.661621 12.645691 -12.64566 12.645691l0 0c-6.984009 0 -12.64566 -5.661682 -12.64566 -12.645691z" fill-rule="evenodd"></path><path fill="#cc0000" fill-opacity="0.5538" d="m472.75067 180.69292l0 0c0 -6.984009 5.6616516 -12.645676 12.64566 -12.645676l0 0c3.3538208 0 6.5703125 1.3323059 8.9418335 3.703827c2.371521 2.3715363 3.703827 5.5880127 3.703827 8.941849l0 0c0 6.984009 -5.6616516 12.64566 -12.64566 12.64566l0 0c-6.984009 0 -12.64566 -5.6616516 -12.64566 -12.64566z" fill-rule="evenodd"></path><path fill="#cc0000" fill-opacity="0.5538" d="m602.2336 242.24934l0 0c0 -6.984009 5.661682 -12.645676 12.645691 -12.645676l0 0c3.3538208 0 6.5703125 1.3323212 8.9418335 3.7038422c2.371521 2.371521 3.7038574 5.5879974 3.7038574 8.9418335l0 0c0 6.984009 -5.661682 12.645676 -12.645691 12.645676l0 0c-6.984009 0 -12.645691 -5.661667 -12.645691 -12.645676z" fill-rule="evenodd"></path><path fill="#cc0000" fill-opacity="0.5538" d="m542.8727 110.91863l0 0c0 -6.984009 5.661682 -12.645668 12.645691 -12.645668l0 0c3.3538208 0 6.5703125 1.3323059 8.9418335 3.7038345c2.371521 2.371521 3.7038574 5.5879974 3.7038574 8.9418335l0 0c0 6.9840164 -5.661682 12.645676 -12.645691 12.645676l0 0c-6.984009 0 -12.645691 -5.6616592 -12.645691 -12.645676z" fill-rule="evenodd"></path><path fill="#cc0000" fill-opacity="0.5538" d="m618.5906 193.69948l0 0c0 -6.984009 5.661621 -12.645676 12.64563 -12.645676l0 0c3.3538818 0 6.5703125 1.3323059 8.9418335 3.703827c2.371521 2.3715363 3.7038574 5.5880127 3.7038574 8.941849l0 0c0 6.984009 -5.661682 12.64566 -12.645691 12.64566l0 0c-6.984009 0 -12.64563 -5.6616516 -12.64563 -12.64566z" fill-rule="evenodd"></path><path fill="#cc0000" fill-opacity="0.5538" d="m550.1365 268.68765l0 0c0 -6.984009 5.661682 -12.64566 12.645691 -12.64566l0 0c3.3538208 0 6.5703125 1.3323059 8.9418335 3.703827c2.371521 2.371521 3.7037964 5.5880127 3.7037964 8.9418335l0 0c0 6.984009 -5.661621 12.645691 -12.64563 12.645691l0 0c-6.984009 0 -12.645691 -5.661682 -12.645691 -12.645691z" fill-rule="evenodd"></path><path fill="#cc0000" fill-opacity="0.5538" d="m575.4278 193.70079l0 0c0 -6.984009 5.661682 -12.645676 12.645691 -12.645676l0 0c3.3538208 0 6.5703125 1.3323059 8.9418335 3.703827c2.371521 2.3715363 3.7038574 5.5880127 3.7038574 8.941849l0 0c0 6.984009 -5.661682 12.64566 -12.645691 12.64566l0 0c-6.984009 0 -12.645691 -5.6616516 -12.645691 -12.64566z" fill-rule="evenodd"></path><path fill="#cc0000" fill-opacity="0.5538" d="m502.41077 151.65749l0 0c0 -6.984009 5.6616516 -12.645676 12.645691 -12.645676l0 0c3.3538208 0 6.5703125 1.3323059 8.9418335 3.703827c2.371521 2.371521 3.7037964 5.5879974 3.7037964 8.941849l0 0c0 6.984009 -5.661621 12.64566 -12.64563 12.64566l0 0c-6.9840393 0 -12.645691 -5.6616516 -12.645691 -12.64566z" fill-rule="evenodd"></path><path fill="#3c78d8" fill-opacity="0.5846" d="m559.9921 180.69292l0 0c0 -73.46692 59.5567 -133.02362 133.02362 -133.02362l0 0c35.28003 0 69.11511 14.014946 94.06189 38.96172c24.946777 24.946762 38.96173 58.781845 38.96173 94.061905l0 0c0 73.46692 -59.5567 133.0236 -133.02362 133.0236l0 0c-73.46692 0 -133.02362 -59.556686 -133.02362 -133.0236z" fill-rule="evenodd"></path><path fill="#3c78d8" fill-opacity="0.5846" d="m719.79004 282.2126l0 0c0 -6.984009 5.661621 -12.64566 12.64563 -12.64566l0 0c3.3538818 0 6.5703125 1.3323059 8.941895 3.703827c2.371521 2.371521 3.7037964 5.5880127 3.7037964 8.9418335l0 0c0 6.984009 -5.661682 12.645691 -12.645691 12.645691l0 0c-6.984009 0 -12.64563 -5.661682 -12.64563 -12.645691z" fill-rule="evenodd"></path><path fill="#3c78d8" fill-opacity="0.5846" d="m729.47504 101.01312l0 0c0 -6.984009 5.661682 -12.645668 12.645691 -12.645668l0 0c3.3538208 0 6.5703125 1.3323059 8.9418335 3.703827c2.371521 2.3715286 3.7038574 5.588005 3.7038574 8.941841l0 0c0 6.984009 -5.661682 12.645668 -12.645691 12.645668l0 0c-6.984009 0 -12.645691 -5.6616592 -12.645691 -12.645668z" fill-rule="evenodd"></path><path fill="#3c78d8" fill-opacity="0.5846" d="m694.49866 144.92126l0 0c0 -6.984009 5.661682 -12.645676 12.645691 -12.645676l0 0c3.3538208 0 6.5703125 1.3323059 8.9418335 3.703827c2.371521 2.371521 3.7038574 5.5879974 3.7038574 8.941849l0 0c0 6.984009 -5.661682 12.64566 -12.645691 12.64566l0 0c-6.984009 0 -12.645691 -5.6616516 -12.645691 -12.64566z" fill-rule="evenodd"></path><path fill="#3c78d8" fill-opacity="0.5846" d="m704.1837 213.56693l0 0c0 -6.984009 5.661682 -12.64566 12.645691 -12.64566l0 0c3.3538208 0 6.5703125 1.3323059 8.9418335 3.703827c2.371521 2.371521 3.7037964 5.5879974 3.7037964 8.9418335l0 0c0 6.984009 -5.661621 12.645676 -12.64563 12.645676l0 0c-6.984009 0 -12.645691 -5.661667 -12.645691 -12.645676z" fill-rule="evenodd"></path><path fill="#3c78d8" fill-opacity="0.5846" d="m656.92914 101.01312l0 0c0 -6.984009 5.661682 -12.645668 12.645691 -12.645668l0 0c3.3538208 0 6.5703125 1.3323059 8.9418335 3.703827c2.371521 2.3715286 3.7037964 5.588005 3.7037964 8.941841l0 0c0 6.984009 -5.661621 12.645668 -12.64563 12.645668l0 0c-6.984009 0 -12.645691 -5.6616592 -12.645691 -12.645668z" fill-rule="evenodd"></path><path fill="#3c78d8" fill-opacity="0.5846" d="m669.20734 256.92126l0 0c0 -6.984009 5.661682 -12.645676 12.645691 -12.645676l0 0c3.3538208 0 6.5703125 1.3323059 8.9418335 3.703827c2.371521 2.371521 3.7037964 5.5879974 3.7037964 8.941849l0 0c0 6.984009 -5.661621 12.64566 -12.64563 12.64566l0 0c-6.984009 0 -12.645691 -5.6616516 -12.645691 -12.64566z" fill-rule="evenodd"></path><path fill="#3c78d8" fill-opacity="0.5846" d="m754.7664 243.50394l0 0c0 -6.984009 5.661621 -12.645676 12.64563 -12.645676l0 0c3.3538818 0 6.5703125 1.3323212 8.9418335 3.7038422c2.371582 2.371521 3.7038574 5.5879974 3.7038574 8.9418335l0 0c0 6.984009 -5.661682 12.64566 -12.645691 12.64566l0 0c-6.984009 0 -12.64563 -5.6616516 -12.64563 -12.64566z" fill-rule="evenodd"></path><path fill="#3c78d8" fill-opacity="0.5846" d="m764.4514 176.92126l0 0c0 -6.984009 5.661682 -12.645676 12.645691 -12.645676l0 0c3.3538208 0 6.5703125 1.3323059 8.9418335 3.703827c2.371521 2.371521 3.7038574 5.5879974 3.7038574 8.941849l0 0c0 6.984009 -5.661682 12.64566 -12.645691 12.64566l0 0c-6.984009 0 -12.645691 -5.6616516 -12.645691 -12.64566z" fill-rule="evenodd"></path><path fill="#3c78d8" fill-opacity="0.5846" d="m669.20734 193.70079l0 0c0 -6.984009 5.661682 -12.645676 12.645691 -12.645676l0 0c3.3538208 0 6.5703125 1.3323059 8.9418335 3.703827c2.371521 2.3715363 3.7037964 5.5880127 3.7037964 8.941849l0 0c0 6.984009 -5.661621 12.64566 -12.64563 12.64566l0 0c-6.984009 0 -12.645691 -5.6616516 -12.645691 -12.64566z" fill-rule="evenodd"></path><path fill="#3c78d8" fill-opacity="0.5846" d="m764.4514 136.20866l0 0c0 -6.984009 5.661682 -12.645668 12.645691 -12.645668l0 0c3.3538208 0 6.5703125 1.3323059 8.9418335 3.703827c2.371521 2.3715286 3.7038574 5.588005 3.7038574 8.941841l0 0c0 6.984009 -5.661682 12.64566 -12.645691 12.64566l0 0c-6.984009 0 -12.645691 -5.6616516 -12.645691 -12.64566z" fill-rule="evenodd"></path><path fill="#cc0000" fill-opacity="0.5538" d="m82.72691 748.5757l0 0c0 -4.679199 3.7932434 -8.472412 8.472443 -8.472412l0 0c2.2470322 0 4.402031 0.8925781 5.990921 2.4815063c1.5888901 1.5888672 2.4815216 3.7438965 2.4815216 5.990906l0 0c0 4.679199 -3.7932434 8.472473 -8.472443 8.472473l0 0c-4.679199 0 -8.472443 -3.793274 -8.472443 -8.472473z" fill-rule="evenodd"></path><path fill="#cc0000" fill-opacity="0.5538" d="m75.994194 694.46765l0 0c0 -4.679199 3.7932434 -8.472412 8.472443 -8.472412l0 0c2.2470322 0 4.402031 0.89263916 5.990921 2.4815063c1.5888901 1.5889282 2.4815216 3.7438965 2.4815216 5.990906l0 0c0 4.679199 -3.7932434 8.472473 -8.472443 8.472473l0 0c-4.679199 0 -8.472443 -3.793274 -8.472443 -8.472473z" fill-rule="evenodd"></path><path fill="#cc0000" fill-opacity="0.5538" d="m115.2772 659.3179l0 0c0 -4.679199 3.7932434 -8.472412 8.472443 -8.472412l0 0c2.2470322 0 4.402031 0.8925781 5.9909286 2.4815063c1.5888824 1.5888672 2.4815063 3.7438965 2.4815063 5.990906l0 0c0 4.679199 -3.7932281 8.472473 -8.472435 8.472473l0 0c-4.679199 0 -8.472443 -3.793274 -8.472443 -8.472473z" fill-rule="evenodd"></path><path fill="#cc0000" fill-opacity="0.5538" d="m188.95021 694.46765l0 0c0 -4.679199 3.7932434 -8.472412 8.472443 -8.472412l0 0c2.2470245 0 4.4020233 0.89263916 5.990921 2.4815063c1.5888824 1.5889282 2.4815216 3.7438965 2.4815216 5.990906l0 0c0 4.679199 -3.7932434 8.472473 -8.472443 8.472473l0 0c-4.679199 0 -8.472443 -3.793274 -8.472443 -8.472473z" fill-rule="evenodd"></path><path fill="#cc0000" fill-opacity="0.5538" d="m132.22508 738.3359l0 0c0 -4.679199 3.7932434 -8.472412 8.472443 -8.472412l0 0c2.2470398 0 4.4020386 0.89263916 5.990921 2.4815063c1.5888977 1.5889282 2.4815216 3.7438965 2.4815216 5.990906l0 0c0 4.679199 -3.7932434 8.472473 -8.472443 8.472473l0 0c-4.679199 0 -8.472443 -3.793274 -8.472443 -8.472473z" fill-rule="evenodd"></path><path fill="#cc0000" fill-opacity="0.5538" d="m119.13075 777.2496l0 0c0 -4.679199 3.7932434 -8.472473 8.472443 -8.472473l0 0c2.2470245 0 4.4020233 0.89263916 5.990921 2.4815674c1.5888824 1.5888672 2.4815216 3.7438354 2.4815216 5.990906l0 0c0 4.679199 -3.7932434 8.472412 -8.472443 8.472412l0 0c-4.679199 0 -8.472443 -3.793213 -8.472443 -8.472412z" fill-rule="evenodd"></path><path fill="#cc0000" fill-opacity="0.5538" d="m102.18287 718.2837l0 0c0 -4.679199 3.7932358 -8.472412 8.472435 -8.472412l0 0c2.2470322 0 4.402031 0.89263916 5.990921 2.4815063c1.5888901 1.5889282 2.4815216 3.7438965 2.4815216 5.990906l0 0c0 4.679199 -3.7932434 8.472473 -8.472443 8.472473l0 0c-4.679199 0 -8.472435 -3.793274 -8.472435 -8.472473z" fill-rule="evenodd"></path><path fill="#cc0000" fill-opacity="0.5538" d="m188.95021 759.5331l0 0c0 -4.679199 3.7932434 -8.472473 8.472443 -8.472473l0 0c2.2470245 0 4.4020233 0.89263916 5.990921 2.4815674c1.5888824 1.5888672 2.4815216 3.7438965 2.4815216 5.990906l0 0c0 4.679199 -3.7932434 8.472412 -8.472443 8.472412l0 0c-4.679199 0 -8.472443 -3.793213 -8.472443 -8.472412z" fill-rule="evenodd"></path><path fill="#cc0000" fill-opacity="0.5538" d="m149.1721 671.5275l0 0c0 -4.679199 3.7932281 -8.472412 8.472427 -8.472412l0 0c2.2470398 0 4.4020386 0.8925781 5.990921 2.4815063c1.5888977 1.5888672 2.4815216 3.7438965 2.4815216 5.990906l0 0c0 4.679199 -3.7932434 8.472473 -8.472443 8.472473l0 0c-4.679199 0 -8.472427 -3.793274 -8.472427 -8.472473z" fill-rule="evenodd"></path><path fill="#cc0000" fill-opacity="0.5538" d="m199.9111 726.9995l0 0c0 -4.679199 3.7932434 -8.472473 8.472443 -8.472473l0 0c2.2470398 0 4.4020386 0.89263916 5.990921 2.4815674c1.5888977 1.5888672 2.4815216 3.7438354 2.4815216 5.990906l0 0c0 4.679199 -3.7932434 8.472412 -8.472443 8.472412l0 0c-4.679199 0 -8.472443 -3.793213 -8.472443 -8.472412z" fill-rule="evenodd"></path><path fill="#cc0000" fill-opacity="0.5538" d="m154.0396 777.2496l0 0c0 -4.679199 3.7932434 -8.472473 8.472443 -8.472473l0 0c2.2470398 0 4.4020386 0.89263916 5.990921 2.4815674c1.5888977 1.5888672 2.4815216 3.7438354 2.4815216 5.990906l0 0c0 4.679199 -3.7932434 8.472412 -8.472443 8.472412l0 0c-4.679199 0 -8.472443 -3.793213 -8.472443 -8.472412z" fill-rule="evenodd"></path><path fill="#cc0000" fill-opacity="0.5538" d="m170.98749 727.00037l0 0c0 -4.679199 3.7932434 -8.472412 8.472443 -8.472412l0 0c2.2470245 0 4.4020233 0.89263916 5.990921 2.4815063c1.5888824 1.5888672 2.4815216 3.7438965 2.4815216 5.990906l0 0c0 4.679199 -3.7932434 8.472473 -8.472443 8.472473l0 0c-4.679199 0 -8.472443 -3.793274 -8.472443 -8.472473z" fill-rule="evenodd"></path><path fill="#cc0000" fill-opacity="0.5538" d="m122.05829 698.8269l0 0c0 -4.679199 3.7932434 -8.472473 8.472443 -8.472473l0 0c2.2470245 0 4.4020233 0.89263916 5.990921 2.4815063c1.5888977 1.5889282 2.4815216 3.7438965 2.4815216 5.990967l0 0c0 4.679199 -3.7932434 8.472412 -8.472443 8.472412l0 0c-4.679199 0 -8.472443 -3.793213 -8.472443 -8.472412z" fill-rule="evenodd"></path><path fill="#3c78d8" fill-opacity="0.5846" d="m341.3868 697.33093l0 0c0 -4.609619 3.7368164 -8.346497 8.346436 -8.346497l0 0c2.213623 0 4.3365784 0.87939453 5.9018555 2.444641c1.5652466 1.5652466 2.4446106 3.6882324 2.4446106 5.9018555l0 0c0 4.609619 -3.736847 8.346436 -8.346466 8.346436l0 0c-4.609619 0 -8.346436 -3.7368164 -8.346436 -8.346436z" fill-rule="evenodd"></path><path fill="#3c78d8" fill-opacity="0.5846" d="m341.3868 761.36365l0 0c0 -4.609619 3.7368164 -8.346497 8.346436 -8.346497l0 0c2.213623 0 4.3365784 0.87939453 5.9018555 2.444641c1.5652466 1.5652466 2.4446106 3.6882324 2.4446106 5.9018555l0 0c0 4.609619 -3.736847 8.346436 -8.346466 8.346436l0 0c-4.609619 0 -8.346436 -3.7368164 -8.346436 -8.346436z" fill-rule="evenodd"></path><path fill="#3c78d8" fill-opacity="0.5846" d="m352.17377 729.3464l0 0c0 -4.609619 3.736847 -8.346436 8.346466 -8.346436l0 0c2.2135925 0 4.336548 0.8793335 5.901825 2.444641c1.5652771 1.5652466 2.4446106 3.6881714 2.4446106 5.9017944l0 0c0 4.609619 -3.7368164 8.346497 -8.346436 8.346497l0 0c-4.609619 0 -8.346466 -3.7368774 -8.346466 -8.346497z" fill-rule="evenodd"></path><path fill="#3c78d8" fill-opacity="0.5846" d="m323.70914 729.3473l0 0c0 -4.609619 3.7368164 -8.346497 8.346436 -8.346497l0 0c2.213623 0 4.3365784 0.87939453 5.9018555 2.444641c1.5652466 1.5652466 2.4446106 3.6882324 2.4446106 5.9018555l0 0c0 4.609619 -3.736847 8.346436 -8.346466 8.346436l0 0c-4.609619 0 -8.346436 -3.7368164 -8.346436 -8.346436z" fill-rule="evenodd"></path><path fill="#3c78d8" fill-opacity="0.5846" d="m418.91205 787.7182l0 0c0 -4.609619 3.736847 -8.346436 8.346466 -8.346436l0 0c2.213623 0 4.3365784 0.87939453 5.901825 2.444641c1.5652771 1.5652466 2.444641 3.6882324 2.444641 5.9017944l0 0c0 4.60968 -3.736847 8.346497 -8.346466 8.346497l0 0c-4.609619 0 -8.346466 -3.7368164 -8.346466 -8.346497z" fill-rule="evenodd"></path><path fill="#3c78d8" fill-opacity="0.5846" d="m425.29907 668.2225l0 0c0 -4.609619 3.736847 -8.346497 8.346466 -8.346497l0 0c2.213623 0 4.3365784 0.87939453 5.901825 2.444641c1.5652771 1.5652466 2.444641 3.6882324 2.444641 5.9018555l0 0c0 4.609619 -3.736847 8.346436 -8.346466 8.346436l0 0c-4.609619 0 -8.346466 -3.7368164 -8.346466 -8.346436z" fill-rule="evenodd"></path><path fill="#3c78d8" fill-opacity="0.5846" d="m402.23312 697.1786l0 0c0 -4.609619 3.7368164 -8.346436 8.346436 -8.346436l0 0c2.213623 0 4.3365784 0.8793335 5.9018555 2.44458c1.5652466 1.5653076 2.4446106 3.6882324 2.4446106 5.9018555l0 0c0 4.609619 -3.736847 8.346436 -8.346466 8.346436l0 0c-4.609619 0 -8.346436 -3.7368164 -8.346436 -8.346436z" fill-rule="evenodd"></path><path fill="#3c78d8" fill-opacity="0.5846" d="m408.62012 742.4484l0 0c0 -4.609619 3.736847 -8.346497 8.346466 -8.346497l0 0c2.213623 0 4.3365784 0.87939453 5.901825 2.444641c1.5652771 1.5652466 2.444641 3.6882324 2.444641 5.9018555l0 0c0 4.609619 -3.736847 8.346436 -8.346466 8.346436l0 0c-4.609619 0 -8.346466 -3.7368164 -8.346466 -8.346436z" fill-rule="evenodd"></path><path fill="#3c78d8" fill-opacity="0.5846" d="m377.457 668.2225l0 0c0 -4.609619 3.736847 -8.346497 8.346466 -8.346497l0 0c2.213623 0 4.3365784 0.87939453 5.9018555 2.444641c1.5652466 1.5652466 2.4446106 3.6882324 2.4446106 5.9018555l0 0c0 4.609619 -3.736847 8.346436 -8.346466 8.346436l0 0c-4.609619 0 -8.346466 -3.7368164 -8.346466 -8.346436z" fill-rule="evenodd"></path><path fill="#3c78d8" fill-opacity="0.5846" d="m385.55417 771.0393l0 0c0 -4.609619 3.7368164 -8.346436 8.346436 -8.346436l0 0c2.213623 0 4.3365784 0.8793335 5.9018555 2.444641c1.5652466 1.5652466 2.4446106 3.6881714 2.4446106 5.9017944l0 0c0 4.609619 -3.7368164 8.346497 -8.346466 8.346497l0 0c-4.609619 0 -8.346436 -3.7368774 -8.346436 -8.346497z" fill-rule="evenodd"></path><path fill="#3c78d8" fill-opacity="0.5846" d="m441.97803 762.191l0 0c0 -4.609619 3.736847 -8.346436 8.346466 -8.346436l0 0c2.2135925 0 4.336548 0.8793335 5.901825 2.444641c1.5652771 1.5652466 2.4446106 3.6881714 2.4446106 5.9017944l0 0c0 4.609619 -3.7368164 8.346497 -8.346436 8.346497l0 0c-4.609619 0 -8.346466 -3.7368774 -8.346466 -8.346497z" fill-rule="evenodd"></path><path fill="#3c78d8" fill-opacity="0.5846" d="m448.36505 718.2817l0 0c0 -4.609619 3.7368164 -8.346497 8.346436 -8.346497l0 0c2.213623 0 4.3365784 0.87939453 5.9018555 2.444641c1.5652466 1.5652466 2.4446106 3.6882324 2.4446106 5.9018555l0 0c0 4.609619 -3.7368164 8.346436 -8.346466 8.346436l0 0c-4.609619 0 -8.346436 -3.7368164 -8.346436 -8.346436z" fill-rule="evenodd"></path><path fill="#3c78d8" fill-opacity="0.5846" d="m385.55417 729.3473l0 0c0 -4.609619 3.7368164 -8.346497 8.346436 -8.346497l0 0c2.213623 0 4.3365784 0.87939453 5.9018555 2.444641c1.5652466 1.5652466 2.4446106 3.6882324 2.4446106 5.9018555l0 0c0 4.609619 -3.7368164 8.346436 -8.346466 8.346436l0 0c-4.609619 0 -8.346436 -3.7368164 -8.346436 -8.346436z" fill-rule="evenodd"></path><path fill="#3c78d8" fill-opacity="0.5846" d="m448.36505 691.43286l0 0c0 -4.609619 3.7368164 -8.346436 8.346436 -8.346436l0 0c2.213623 0 4.3365784 0.8793335 5.9018555 2.444641c1.5652466 1.5652466 2.4446106 3.6881714 2.4446106 5.9017944l0 0c0 4.609619 -3.7368164 8.346497 -8.346466 8.346497l0 0c-4.609619 0 -8.346436 -3.7368774 -8.346436 -8.346497z" fill-rule="evenodd"></path><path fill="#674ea7" fill-opacity="0.6923" d="m352.0994 502.23904l0 0c0 -4.609619 3.736847 -8.346466 8.346466 -8.346466l0 0c2.213623 0 4.3365784 0.879364 5.901825 2.444641c1.5652771 1.5652466 2.4446106 3.688202 2.4446106 5.901825l0 0c0 4.609619 -3.7368164 8.346466 -8.346436 8.346466l0 0c-4.609619 0 -8.346466 -3.736847 -8.346466 -8.346466z" fill-rule="evenodd"></path><path fill="#674ea7" fill-opacity="0.6923" d="m352.0994 566.2718l0 0c0 -4.609619 3.736847 -8.346497 8.346466 -8.346497l0 0c2.213623 0 4.3365784 0.87939453 5.901825 2.444641c1.5652771 1.5652466 2.4446106 3.6882324 2.4446106 5.9018555l0 0c0 4.609619 -3.7368164 8.346436 -8.346436 8.346436l0 0c-4.609619 0 -8.346466 -3.7368164 -8.346466 -8.346436z" fill-rule="evenodd"></path><path fill="#674ea7" fill-opacity="0.6923" d="m362.88635 534.2545l0 0c0 -4.609619 3.736847 -8.346436 8.346466 -8.346436l0 0c2.213623 0 4.3365784 0.8793335 5.901825 2.444641c1.5652771 1.5652466 2.444641 3.6881714 2.444641 5.9017944l0 0c0 4.609619 -3.736847 8.346497 -8.346466 8.346497l0 0c-4.609619 0 -8.346466 -3.7368774 -8.346466 -8.346497z" fill-rule="evenodd"></path><path fill="#674ea7" fill-opacity="0.6923" d="m334.42172 534.2554l0 0c0 -4.609619 3.736847 -8.346436 8.346466 -8.346436l0 0c2.2135925 0 4.336548 0.87939453 5.901825 2.444641c1.5652771 1.5652466 2.4446106 3.6882324 2.4446106 5.9017944l0 0c0 4.60968 -3.7368164 8.346497 -8.346436 8.346497l0 0c-4.609619 0 -8.346466 -3.7368164 -8.346466 -8.346497z" fill-rule="evenodd"></path><path fill="#000000" d="m250.21071 537.59076l17.9626 0l0 -15.844666l3.6321106 0l0 15.844666l17.962585 0l0 3.632141l-17.962585 0l0 15.844666l-3.6321106 0l0 -15.844666l-17.9626 0z" fill-rule="evenodd"></path><path stroke="#000000" stroke-width="1.0" stroke-linejoin="round" stroke-linecap="butt" d="m250.21071 537.59076l17.9626 0l0 -15.844666l3.6321106 0l0 15.844666l17.962585 0l0 3.632141l-17.962585 0l0 15.844666l-3.6321106 0l0 -15.844666l-17.9626 0z" fill-rule="evenodd"></path><path fill="#000000" d="m29.24944 617.0056l484.01556 0l0 2.2249756l-484.01556 0z" fill-rule="evenodd"></path><path stroke="#000000" stroke-width="1.0" stroke-linejoin="round" stroke-linecap="butt" d="m29.24944 617.0056l484.01556 0l0 2.2249756l-484.01556 0z" fill-rule="evenodd"></path><path fill="#000000" d="m253.20152 701.18134l17.9626 0l0 -15.844727l3.6321106 0l0 15.844727l17.962585 0l0 3.63208l-17.962585 0l0 15.844727l-3.6321106 0l0 -15.844727l-17.9626 0z" fill-rule="evenodd"></path><path stroke="#000000" stroke-width="1.0" stroke-linejoin="round" stroke-linecap="butt" d="m253.20152 701.18134l17.9626 0l0 -15.844727l3.6321106 0l0 15.844727l17.962585 0l0 3.63208l-17.962585 0l0 15.844727l-3.6321106 0l0 -15.844727l-17.9626 0z" fill-rule="evenodd"></path><path fill="#cc0000" fill-opacity="0.5538" d="m57.29659 719.96063l0 0c0 -48.940247 39.673916 -88.6142 88.61418 -88.6142l0 0c23.501938 0 46.04129 9.336121 62.659683 25.954529c16.618378 16.618347 25.954483 39.157715 25.954483 62.659668l0 0c0 48.940247 -39.67392 88.6142 -88.61417 88.6142l0 0c-48.94026 0 -88.61418 -39.67395 -88.61418 -88.6142z" fill-rule="evenodd"></path><path fill="#674ea7" fill-opacity="0.6923" d="m362.4937 597.7475l0 0c-21.92163 -14.505005 -35.210358 -38.114014 -35.742493 -63.500977c-0.532135 -25.386993 11.756653 -49.48062 33.05301 -64.80444z" fill-rule="evenodd"></path><path fill="#674ea7" fill-opacity="0.6923" d="m358.86945 470.97723l0 0c21.792145 14.565491 34.954742 38.15158 35.422424 63.47351c0.46765137 25.3219 -11.815887 49.332764 -33.056732 64.61664z" fill-rule="evenodd"></path><path fill="#674ea7" fill-opacity="0.6923" d="m171.03903 497.722l0 0c0 -4.609619 3.7368317 -8.346466 8.346451 -8.346466l0 0c2.213623 0 4.3365784 0.879364 5.90184 2.444641c1.5652618 1.5652466 2.4446259 3.688202 2.4446259 5.901825l0 0c0 4.609619 -3.736847 8.346466 -8.346466 8.346466l0 0c-4.609619 0 -8.346451 -3.736847 -8.346451 -8.346466z" fill-rule="evenodd"></path><path fill="#674ea7" fill-opacity="0.6923" d="m171.03903 561.7547l0 0c0 -4.609619 3.7368317 -8.346436 8.346451 -8.346436l0 0c2.213623 0 4.3365784 0.8793335 5.90184 2.44458c1.5652618 1.5653076 2.4446259 3.6882324 2.4446259 5.9018555l0 0c0 4.609619 -3.736847 8.346436 -8.346466 8.346436l0 0c-4.609619 0 -8.346451 -3.7368164 -8.346451 -8.346436z" fill-rule="evenodd"></path><path fill="#674ea7" fill-opacity="0.6923" d="m181.82599 529.7375l0 0c0 -4.609619 3.736847 -8.346497 8.346466 -8.346497l0 0c2.213623 0 4.336563 0.87939453 5.90184 2.444641c1.5652618 1.5652466 2.4446106 3.6882324 2.4446106 5.9018555l0 0c0 4.609619 -3.7368317 8.346436 -8.346451 8.346436l0 0c-4.609619 0 -8.346466 -3.7368164 -8.346466 -8.346436z" fill-rule="evenodd"></path><path fill="#674ea7" fill-opacity="0.6923" d="m153.36136 529.73834l0 0c0 -4.609619 3.7368317 -8.346436 8.346451 -8.346436l0 0c2.213623 0 4.3365784 0.8793335 5.90184 2.44458c1.5652618 1.5653076 2.4446106 3.6882324 2.4446106 5.9018555l0 0c0 4.609619 -3.7368317 8.346436 -8.346451 8.346436l0 0c-4.609619 0 -8.346451 -3.7368164 -8.346451 -8.346436z" fill-rule="evenodd"></path><path fill="#674ea7" fill-opacity="0.6923" d="m181.43333 593.23047l0 0c-21.92163 -14.505005 -35.210342 -38.114075 -35.742477 -63.501038c-0.53215027 -25.386963 11.756638 -49.48059 33.053024 -64.80441z" fill-rule="evenodd"></path><path fill="#674ea7" fill-opacity="0.6923" d="m177.80907 466.46017l0 0c21.792145 14.565491 34.954758 38.15158 35.422424 63.47348c0.46768188 25.3219 -11.815872 49.332764 -33.056717 64.61664z" fill-rule="evenodd"></path><path fill="#3c78d8" fill-opacity="0.6769" d="m311.4357 719.2152l0 0c0 -48.940247 39.67392 -88.614136 88.61417 -88.614136l0 0c23.501953 0 46.04129 9.33606 62.6597 25.954468c16.618378 16.618408 25.954468 39.157715 25.954468 62.659668l0 0c0 48.940247 -39.67392 88.6142 -88.61417 88.6142l0 0c-48.940247 0 -88.61417 -39.67395 -88.61417 -88.6142z" fill-rule="evenodd"></path><path fill="#000000" d="m589.5656 432.5647l21.047363 0l0 -82.08438l11.732056 0l0 82.08438l21.047363 0l-26.913391 29.69516z" fill-rule="evenodd"></path><path stroke="#000000" stroke-width="1.0" stroke-linejoin="round" stroke-linecap="butt" d="m589.5656 432.5647l21.047363 0l0 -82.08438l11.732056 0l0 82.08438l21.047363 0l-26.913391 29.69516z" fill-rule="evenodd"></path><path fill="#674ea7" fill-opacity="0.6923" d="m1045.0784 504.14587l0 0c0 -4.609619 3.7368164 -8.346466 8.346436 -8.346466l0 0c2.213623 0 4.33667 0.879364 5.9018555 2.4446106c1.5653076 1.5652771 2.4447021 3.6882324 2.4447021 5.9018555l0 0c0 4.609619 -3.7369385 8.346436 -8.346558 8.346436l0 0c-4.609619 0 -8.346436 -3.7368164 -8.346436 -8.346436z" fill-rule="evenodd"></path><path fill="#674ea7" fill-opacity="0.6923" d="m1045.0784 568.1786l0 0c0 -4.609619 3.7368164 -8.346436 8.346436 -8.346436l0 0c2.213623 0 4.33667 0.8793335 5.9018555 2.44458c1.5653076 1.5653076 2.4447021 3.6882324 2.4447021 5.9018555l0 0c0 4.609619 -3.7369385 8.346436 -8.346558 8.346436l0 0c-4.609619 0 -8.346436 -3.7368164 -8.346436 -8.346436z" fill-rule="evenodd"></path><path fill="#674ea7" fill-opacity="0.6923" d="m1055.8654 536.1614l0 0c0 -4.609619 3.7368164 -8.346497 8.346436 -8.346497l0 0c2.213623 0 4.336548 0.87939453 5.9018555 2.444641c1.5653076 1.5652466 2.44458 3.6882324 2.44458 5.9018555l0 0c0 4.609619 -3.7368164 8.346436 -8.346436 8.346436l0 0c-4.609619 0 -8.346436 -3.7368164 -8.346436 -8.346436z" fill-rule="evenodd"></path><path fill="#674ea7" fill-opacity="0.6923" d="m1027.4008 536.16223l0 0c0 -4.609619 3.7368164 -8.346436 8.346436 -8.346436l0 0c2.213623 0 4.336548 0.8793335 5.9018555 2.44458c1.5651855 1.5653076 2.44458 3.6882324 2.44458 5.9018555l0 0c0 4.609619 -3.7368164 8.346436 -8.346436 8.346436l0 0c-4.609619 0 -8.346436 -3.7368164 -8.346436 -8.346436z" fill-rule="evenodd"></path><path fill="#000000" d="m943.1897 539.49756l17.962585 0l0 -15.844666l3.632141 0l0 15.844666l17.962585 0l0 3.632141l-17.962585 0l0 15.844666l-3.632141 0l0 -15.844666l-17.962585 0z" fill-rule="evenodd"></path><path stroke="#000000" stroke-width="1.0" stroke-linejoin="round" stroke-linecap="butt" d="m943.1897 539.49756l17.962585 0l0 -15.844666l3.632141 0l0 15.844666l17.962585 0l0 3.632141l-17.962585 0l0 15.844666l-3.632141 0l0 -15.844666l-17.962585 0z" fill-rule="evenodd"></path><path fill="#434343" d="m722.22845 618.9124l484.01556 0l0 2.2250366l-484.01556 0z" fill-rule="evenodd"></path><path stroke="#000000" stroke-width="1.0" stroke-linejoin="round" stroke-linecap="butt" d="m722.22845 618.9124l484.01556 0l0 2.2250366l-484.01556 0z" fill-rule="evenodd"></path><path fill="#000000" d="m1041.2225 715.08813l17.962524 0l0 -15.844666l3.6322021 0l0 15.844666l17.962524 0l0 3.632141l-17.962524 0l0 15.844666l-3.6322021 0l0 -15.844666l-17.962524 0z" fill-rule="evenodd"></path><path stroke="#000000" stroke-width="1.0" stroke-linejoin="round" stroke-linecap="butt" d="m1041.2225 715.08813l17.962524 0l0 -15.844666l3.6322021 0l0 15.844666l17.962524 0l0 3.632141l-17.962524 0l0 15.844666l-3.6322021 0l0 -15.844666l-17.962524 0z" fill-rule="evenodd"></path><path fill="#674ea7" fill-opacity="0.6923" d="m1055.4727 599.65436l0 0c-21.92163 -14.505005 -35.210266 -38.114075 -35.74243 -63.501038c-0.5321655 -25.386963 11.756592 -49.48062 33.05298 -64.80441z" fill-rule="evenodd"></path><path fill="#674ea7" fill-opacity="0.6923" d="m1051.8484 472.88406l0 0c21.792236 14.565491 34.954834 38.15158 35.422485 63.47348c0.46765137 25.3219 -11.815918 49.332764 -33.056763 64.61664z" fill-rule="evenodd"></path><path fill="#674ea7" fill-opacity="0.6923" d="m864.018 499.6288l0 0c0 -4.609619 3.7368774 -8.346466 8.346497 -8.346466l0 0c2.213623 0 4.336548 0.879364 5.9017944 2.4446106c1.5653076 1.5652771 2.444641 3.6882324 2.444641 5.9018555l0 0c0 4.609619 -3.7368164 8.346436 -8.346436 8.346436l0 0c-4.609619 0 -8.346497 -3.7368164 -8.346497 -8.346436z" fill-rule="evenodd"></path><path fill="#674ea7" fill-opacity="0.6923" d="m864.018 563.6615l0 0c0 -4.609619 3.7368774 -8.346436 8.346497 -8.346436l0 0c2.213623 0 4.336548 0.8793335 5.9017944 2.444641c1.5653076 1.5652466 2.444641 3.6882324 2.444641 5.9017944l0 0c0 4.609619 -3.7368164 8.346497 -8.346436 8.346497l0 0c-4.609619 0 -8.346497 -3.7368774 -8.346497 -8.346497z" fill-rule="evenodd"></path><path fill="#674ea7" fill-opacity="0.6923" d="m874.805 531.6443l0 0c0 -4.609619 3.7368164 -8.346436 8.346436 -8.346436l0 0c2.213623 0 4.336609 0.8793335 5.9018555 2.444641c1.5652466 1.5652466 2.444641 3.6881714 2.444641 5.9017944l0 0c0 4.609619 -3.7368774 8.346497 -8.346497 8.346497l0 0c-4.609619 0 -8.346436 -3.7368774 -8.346436 -8.346497z" fill-rule="evenodd"></path><path fill="#674ea7" fill-opacity="0.6923" d="m846.34033 531.64514l0 0c0 -4.609619 3.7368774 -8.346436 8.346497 -8.346436l0 0c2.213623 0 4.336548 0.8793335 5.9017944 2.444641c1.5653076 1.5652466 2.444641 3.6881714 2.444641 5.9017944l0 0c0 4.609619 -3.7368164 8.346497 -8.346436 8.346497l0 0c-4.609619 0 -8.346497 -3.7368774 -8.346497 -8.346497z" fill-rule="evenodd"></path><path fill="#674ea7" fill-opacity="0.6923" d="m874.41235 595.13727l0 0c-21.92163 -14.505005 -35.210327 -38.114014 -35.742493 -63.500977c-0.5321655 -25.386993 11.756653 -49.48065 33.05304 -64.80444z" fill-rule="evenodd"></path><path fill="#674ea7" fill-opacity="0.6923" d="m870.7881 468.367l0 0c21.792114 14.565491 34.954712 38.15158 35.422424 63.47351c0.46765137 25.321838 -11.815857 49.332764 -33.056763 64.61664z" fill-rule="evenodd"></path><path fill="#cc0000" fill-opacity="0.5538" d="m742.6273 722.2034l0 0c0 -48.940247 39.67389 -88.6142 88.614136 -88.6142l0 0c23.501953 0 46.04132 9.336121 62.659668 25.954468c16.618408 16.618408 25.954529 39.157776 25.954529 62.65973l0 0c0 48.940247 -39.67395 88.614136 -88.6142 88.614136l0 0c-48.940247 0 -88.614136 -39.67389 -88.614136 -88.614136z" fill-rule="evenodd"></path><path fill="#cc0000" fill-opacity="0.5538" d="m773.61115 752.31793l0 0c0 -4.653076 3.7720947 -8.425171 8.425171 -8.425171l0 0c2.234497 0 4.3775024 0.8876343 5.9575195 2.4676514c1.5800171 1.5800171 2.4677124 3.7230225 2.4677124 5.9575195l0 0c0 4.653137 -3.7720947 8.425232 -8.425232 8.425232l0 0c-4.653076 0 -8.425171 -3.7720947 -8.425171 -8.425232z" fill-rule="evenodd"></path><path fill="#cc0000" fill-opacity="0.5538" d="m766.91815 698.5291l0 0c0 -4.653137 3.7720947 -8.425232 8.425232 -8.425232l0 0c2.234497 0 4.3774414 0.8876953 5.9575195 2.4677124c1.5800171 1.5800171 2.4676514 3.7230225 2.4676514 5.9575195l0 0c0 4.653076 -3.7720947 8.425171 -8.425171 8.425171l0 0c-4.653137 0 -8.425232 -3.7720947 -8.425232 -8.425171z" fill-rule="evenodd"></path><path fill="#cc0000" fill-opacity="0.5538" d="m805.96924 663.5866l0 0c0 -4.653076 3.7720947 -8.425171 8.425232 -8.425171l0 0c2.234497 0 4.3774414 0.8876343 5.9574585 2.4676514c1.5800781 1.5800781 2.4677124 3.7230225 2.4677124 5.9575195l0 0c0 4.653137 -3.7720947 8.425232 -8.425171 8.425232l0 0c-4.653137 0 -8.425232 -3.7720947 -8.425232 -8.425232z" fill-rule="evenodd"></path><path fill="#cc0000" fill-opacity="0.5538" d="m879.2073 698.5291l0 0c0 -4.653137 3.7720947 -8.425232 8.425232 -8.425232l0 0c2.234497 0 4.3774414 0.8876953 5.9575195 2.4677124c1.5800171 1.5800171 2.4676514 3.7230225 2.4676514 5.9575195l0 0c0 4.653076 -3.7720947 8.425171 -8.425171 8.425171l0 0c-4.653137 0 -8.425232 -3.7720947 -8.425232 -8.425171z" fill-rule="evenodd"></path><path fill="#cc0000" fill-opacity="0.5538" d="m822.8171 742.13855l0 0c0 -4.653076 3.7720947 -8.425171 8.425171 -8.425171l0 0c2.234497 0 4.3775024 0.8876343 5.9575195 2.4676514c1.5800171 1.5800171 2.4677124 3.7230225 2.4677124 5.9575195l0 0c0 4.653137 -3.7720947 8.425232 -8.425232 8.425232l0 0c-4.653076 0 -8.425171 -3.7720947 -8.425171 -8.425232z" fill-rule="evenodd"></path><path fill="#cc0000" fill-opacity="0.5538" d="m809.80005 780.8227l0 0c0 -4.653137 3.7720947 -8.425232 8.425171 -8.425232l0 0c2.234497 0 4.3775024 0.8876953 5.9575195 2.4677124c1.5800781 1.5800171 2.4677124 3.7230225 2.4677124 5.9575195l0 0c0 4.653076 -3.7720947 8.425171 -8.425232 8.425171l0 0c-4.653076 0 -8.425171 -3.7720947 -8.425171 -8.425171z" fill-rule="evenodd"></path><path fill="#cc0000" fill-opacity="0.5538" d="m792.9522 722.20465l0 0c0 -4.653137 3.7720947 -8.425171 8.425232 -8.425171l0 0c2.234497 0 4.3774414 0.8876343 5.9575195 2.4676514c1.5800171 1.5800171 2.4676514 3.7230225 2.4676514 5.9575195l0 0c0 4.653137 -3.7720947 8.425171 -8.425171 8.425171l0 0c-4.653137 0 -8.425232 -3.7720337 -8.425232 -8.425171z" fill-rule="evenodd"></path><path fill="#cc0000" fill-opacity="0.5538" d="m879.2073 763.2107l0 0c0 -4.653137 3.7720947 -8.425171 8.425232 -8.425171l0 0c2.234497 0 4.3774414 0.8876343 5.9575195 2.4676514c1.5800171 1.5800171 2.4676514 3.7230225 2.4676514 5.9575195l0 0c0 4.653076 -3.7720947 8.425171 -8.425171 8.425171l0 0c-4.653137 0 -8.425232 -3.7720947 -8.425232 -8.425171z" fill-rule="evenodd"></path><path fill="#cc0000" fill-opacity="0.5538" d="m839.664 675.72424l0 0c0 -4.653076 3.7720947 -8.425171 8.425232 -8.425171l0 0c2.234497 0 4.3775024 0.8876343 5.9575195 2.4676514c1.5800171 1.5800781 2.4676514 3.7230225 2.4676514 5.9575195l0 0c0 4.653137 -3.7720947 8.425232 -8.425171 8.425232l0 0c-4.653137 0 -8.425232 -3.7720947 -8.425232 -8.425232z" fill-rule="evenodd"></path><path fill="#cc0000" fill-opacity="0.5538" d="m890.10345 730.869l0 0c0 -4.653137 3.7720947 -8.425171 8.425232 -8.425171l0 0c2.234497 0 4.3774414 0.8876343 5.9575195 2.4676514c1.5800171 1.5800171 2.4676514 3.7230225 2.4676514 5.9575195l0 0c0 4.653137 -3.7720947 8.425171 -8.425171 8.425171l0 0c-4.653137 0 -8.425232 -3.7720337 -8.425232 -8.425171z" fill-rule="evenodd"></path><path fill="#cc0000" fill-opacity="0.5538" d="m844.5028 780.8227l0 0c0 -4.653137 3.7720947 -8.425232 8.425171 -8.425232l0 0c2.234497 0 4.3775024 0.8876953 5.9575195 2.4677124c1.5800171 1.5800171 2.4677124 3.7230225 2.4677124 5.9575195l0 0c0 4.653076 -3.7720947 8.425171 -8.425232 8.425171l0 0c-4.653076 0 -8.425171 -3.7720947 -8.425171 -8.425171z" fill-rule="evenodd"></path><path fill="#cc0000" fill-opacity="0.5538" d="m861.35065 730.8699l0 0c0 -4.653076 3.7720337 -8.425171 8.425171 -8.425171l0 0c2.234497 0 4.3775024 0.8876343 5.9575195 2.4676514c1.5800171 1.5800781 2.4676514 3.7230225 2.4676514 5.9575195l0 0c0 4.653137 -3.7720947 8.425232 -8.425171 8.425232l0 0c-4.653137 0 -8.425171 -3.7720947 -8.425171 -8.425232z" fill-rule="evenodd"></path><path fill="#cc0000" fill-opacity="0.5538" d="m812.7103 702.8626l0 0c0 -4.653137 3.7720337 -8.425232 8.425171 -8.425232l0 0c2.234497 0 4.3775024 0.8876953 5.9575195 2.4677124c1.5800171 1.5800171 2.4676514 3.7230225 2.4676514 5.9575195l0 0c0 4.653076 -3.7720337 8.425171 -8.425171 8.425171l0 0c-4.653137 0 -8.425171 -3.7720947 -8.425171 -8.425171z" fill-rule="evenodd"></path><path fill="#3c78d8" fill-opacity="0.5846" d="m851.0681 722.2034l0 0c0 -48.940247 39.67395 -88.6142 88.6142 -88.6142l0 0c23.501953 0 46.04132 9.336121 62.659668 25.954468c16.618408 16.618408 25.954529 39.157776 25.954529 62.65973l0 0c0 48.940247 -39.67395 88.614136 -88.6142 88.614136l0 0c-48.940247 0 -88.6142 -39.67389 -88.6142 -88.614136z" fill-rule="evenodd"></path><path fill="#3c78d8" fill-opacity="0.5846" d="m957.5175 789.83234l0 0c0 -4.653076 3.7720947 -8.425171 8.425171 -8.425171l0 0c2.234497 0 4.3775024 0.8876343 5.9575195 2.4676514c1.5800171 1.5800781 2.4677124 3.7230225 2.4677124 5.9575195l0 0c0 4.653137 -3.7720947 8.425232 -8.425232 8.425232l0 0c-4.653076 0 -8.425171 -3.7720947 -8.425171 -8.425232z" fill-rule="evenodd"></path><path fill="#3c78d8" fill-opacity="0.5846" d="m963.9692 669.1257l0 0c0 -4.653137 3.7720947 -8.425232 8.425232 -8.425232l0 0c2.234497 0 4.3774414 0.8876953 5.9575195 2.4677124c1.5800171 1.5800171 2.4676514 3.7230225 2.4676514 5.9575195l0 0c0 4.653076 -3.7720947 8.425171 -8.425171 8.425171l0 0c-4.653137 0 -8.425232 -3.7720947 -8.425232 -8.425171z" fill-rule="evenodd"></path><path fill="#3c78d8" fill-opacity="0.5846" d="m940.6697 698.37524l0 0c0 -4.653137 3.7720947 -8.425232 8.425171 -8.425232l0 0c2.234558 0 4.3775024 0.8876953 5.9575195 2.4677124c1.5800781 1.5800171 2.4677124 3.7230225 2.4677124 5.9575195l0 0c0 4.653076 -3.7720947 8.425171 -8.425232 8.425171l0 0c-4.653076 0 -8.425171 -3.7720947 -8.425171 -8.425171z" fill-rule="evenodd"></path><path fill="#3c78d8" fill-opacity="0.5846" d="m947.1214 744.1038l0 0c0 -4.653137 3.7720337 -8.425232 8.425171 -8.425232l0 0c2.234497 0 4.3775024 0.8876343 5.9575195 2.4677124c1.5800171 1.5800171 2.4676514 3.7230225 2.4676514 5.9575195l0 0c0 4.653076 -3.7720947 8.425171 -8.425171 8.425171l0 0c-4.653137 0 -8.425171 -3.7720947 -8.425171 -8.425171z" fill-rule="evenodd"></path><path fill="#3c78d8" fill-opacity="0.5846" d="m915.6427 669.1257l0 0c0 -4.653137 3.7720947 -8.425232 8.425232 -8.425232l0 0c2.234497 0 4.3774414 0.8876953 5.9575195 2.4677124c1.5800171 1.5800171 2.4676514 3.7230225 2.4676514 5.9575195l0 0c0 4.653076 -3.7720947 8.425171 -8.425171 8.425171l0 0c-4.653137 0 -8.425232 -3.7720947 -8.425232 -8.425171z" fill-rule="evenodd"></path><path fill="#3c78d8" fill-opacity="0.5846" d="m923.82184 772.98444l0 0c0 -4.653076 3.7720947 -8.425171 8.425232 -8.425171l0 0c2.234497 0 4.3774414 0.8876343 5.9575195 2.4676514c1.5800171 1.5800171 2.4676514 3.7230225 2.4676514 5.9575195l0 0c0 4.653137 -3.7720947 8.425232 -8.425171 8.425232l0 0c-4.653137 0 -8.425232 -3.7720947 -8.425232 -8.425232z" fill-rule="evenodd"></path><path fill="#3c78d8" fill-opacity="0.5846" d="m980.817 764.04645l0 0c0 -4.653137 3.7720947 -8.425171 8.425232 -8.425171l0 0c2.234497 0 4.3774414 0.8876343 5.9574585 2.4676514c1.5800781 1.5800171 2.4677124 3.7230225 2.4677124 5.9575195l0 0c0 4.653076 -3.7720947 8.425171 -8.425171 8.425171l0 0c-4.653137 0 -8.425232 -3.7720947 -8.425232 -8.425171z" fill-rule="evenodd"></path><path fill="#3c78d8" fill-opacity="0.5846" d="m987.26874 719.69214l0 0c0 -4.653076 3.7720337 -8.425171 8.425171 -8.425171l0 0c2.234497 0 4.3775024 0.8876343 5.9575195 2.4676514c1.5800171 1.5800171 2.4676514 3.7230225 2.4676514 5.9575195l0 0c0 4.653137 -3.7720947 8.425232 -8.425171 8.425232l0 0c-4.653137 0 -8.425171 -3.7720947 -8.425171 -8.425232z" fill-rule="evenodd"></path><path fill="#3c78d8" fill-opacity="0.5846" d="m923.82184 730.8699l0 0c0 -4.653076 3.7720947 -8.425171 8.425232 -8.425171l0 0c2.234497 0 4.3774414 0.8876343 5.9575195 2.4676514c1.5800171 1.5800781 2.4676514 3.7230225 2.4676514 5.9575195l0 0c0 4.653137 -3.7720947 8.425232 -8.425171 8.425232l0 0c-4.653137 0 -8.425232 -3.7720947 -8.425232 -8.425232z" fill-rule="evenodd"></path><path fill="#3c78d8" fill-opacity="0.5846" d="m987.26874 692.5713l0 0c0 -4.653076 3.7720337 -8.425171 8.425171 -8.425171l0 0c2.234497 0 4.3775024 0.8876343 5.9575195 2.4676514c1.5800171 1.5800781 2.4676514 3.7230225 2.4676514 5.9575195l0 0c0 4.653137 -3.7720947 8.425232 -8.425171 8.425232l0 0c-4.653137 0 -8.425171 -3.7720947 -8.425171 -8.425232z" fill-rule="evenodd"></path><path fill="#674ea7" fill-opacity="0.6923" d="m1136.8921 698.85455l0 0c0 -4.609619 3.7368164 -8.346497 8.346436 -8.346497l0 0c2.213623 0 4.336548 0.87939453 5.9018555 2.444641c1.5651855 1.5652466 2.44458 3.6882324 2.44458 5.9018555l0 0c0 4.609619 -3.7368164 8.346436 -8.346436 8.346436l0 0c-4.609619 0 -8.346436 -3.7368164 -8.346436 -8.346436z" fill-rule="evenodd"></path><path fill="#674ea7" fill-opacity="0.6923" d="m1136.8921 762.88727l0 0c0 -4.609619 3.7368164 -8.346497 8.346436 -8.346497l0 0c2.213623 0 4.336548 0.87939453 5.9018555 2.444641c1.5651855 1.5652466 2.44458 3.6882324 2.44458 5.9018555l0 0c0 4.609619 -3.7368164 8.346436 -8.346436 8.346436l0 0c-4.609619 0 -8.346436 -3.7368164 -8.346436 -8.346436z" fill-rule="evenodd"></path><path fill="#674ea7" fill-opacity="0.6923" d="m1147.679 730.87l0 0c0 -4.609619 3.7369385 -8.346436 8.346558 -8.346436l0 0c2.213623 0 4.336548 0.8793335 5.9018555 2.444641c1.5651855 1.5652466 2.44458 3.6882324 2.44458 5.9017944l0 0c0 4.609619 -3.7368164 8.346497 -8.346436 8.346497l0 0c-4.609619 0 -8.346558 -3.7368774 -8.346558 -8.346497z" fill-rule="evenodd"></path><path fill="#674ea7" fill-opacity="0.6923" d="m1119.2144 730.8709l0 0c0 -4.609619 3.7368164 -8.346497 8.346436 -8.346497l0 0c2.213623 0 4.33667 0.87939453 5.9018555 2.444641c1.5653076 1.5652466 2.44458 3.6882324 2.44458 5.9018555l0 0c0 4.609619 -3.7368164 8.346436 -8.346436 8.346436l0 0c-4.609619 0 -8.346436 -3.7368164 -8.346436 -8.346436z" fill-rule="evenodd"></path><path fill="#674ea7" fill-opacity="0.6923" d="m1147.2864 794.363l0 0c-21.92163 -14.504944 -35.210327 -38.114014 -35.742554 -63.500977c-0.5321045 -25.386963 11.756714 -49.48065 33.0531 -64.80444z" fill-rule="evenodd"></path><path fill="#674ea7" fill-opacity="0.6923" d="m1143.6621 667.5927l0 0c21.792114 14.565491 34.954712 38.15161 35.422363 63.47351c0.46765137 25.3219 -11.815796 49.332764 -33.05664 64.61664z" fill-rule="evenodd"></path><path fill="#000000" d="m586.0109 562.188l58.67627 0l0 5.76947l-58.67627 0zm0 26.022583l58.67627 0l0 5.769409l-58.67627 0z" fill-rule="evenodd"></path><path stroke="#000000" stroke-width="1.0" stroke-linejoin="round" stroke-linecap="butt" d="m586.0109 562.188l58.67627 0l0 5.76947l-58.67627 0zm0 26.022583l58.67627 0l0 5.769409l-58.67627 0z" fill-rule="evenodd"></path></g></svg>

